<?xml version="1.0" encoding="UTF-8"?>
<svg id="Layer_1" data-name="Layer 1" xmlns="http://www.w3.org/2000/svg" viewBox="0 0 300 300">
  <defs>
    <style>
      .cls-1 {
        fill: none;
        stroke: #c52133;
        stroke-miterlimit: 10;
        stroke-width: 28px;
      }

      .cls-2 {
        fill: #c52133;
      }
    </style>
  </defs>
  <path class="cls-2" d="M150,299.62c-20.75,0-40.25-3.94-58.5-11.81-18.25-7.87-34.13-18.63-47.63-32.25-13.5-13.62-24.19-29.56-32.06-47.81S0,170.12,0,149.62C0,110.37,13,76.62,39,48.38,65,20.13,97,4.13,135,.38v45c-25.75,3.5-47.19,15.06-64.31,34.69-17.13,19.62-25.69,42.81-25.69,69.56,0,29,10.25,53.75,30.75,74.25,20.5,20.5,45.25,30.75,74.25,30.75,16.5,0,31.94-3.5,46.31-10.5,14.37-7,26.44-16.5,36.19-28.5l39,22.5c-13.5,18.75-30.87,33.69-52.12,44.81-21.25,11.12-44.37,16.69-69.37,16.69ZM287.25,210.37l-39-22.5c2.25-6,3.94-12.19,5.06-18.56,1.12-6.38,1.69-12.94,1.69-19.69,0-26.75-8.56-49.94-25.69-69.56-17.13-19.62-38.56-31.19-64.31-34.69V.38c38,3.75,70,19.75,96,48,26,28.25,39,62,39,101.25,0,11-1,21.62-3,31.87-2,10.25-5.25,19.88-9.75,28.88Z"/>
  <polygon class="cls-2" points="153.07 250.24 51.76 152.43 187.13 113.6 153.07 250.24"/>
  <line class="cls-1" x1="10.27" y1="288.94" x2="135.75" y2="166.28"/>
</svg>